/* XPM */
static char * axial_xpm[] = {
"16 16 100 2",
"  	c None",
". 	c #515151",
"+ 	c #4F4F4F",
"@ 	c #6D6D6D",
"# 	c #3E3E3E",
"$ 	c #303030",
"% 	c #919191",
"& 	c #636363",
"* 	c #393939",
"= 	c #545454",
"- 	c #989898",
"; 	c #B1B1B1",
"> 	c #B4B4B4",
", 	c #606060",
"' 	c #505050",
") 	c #949494",
"! 	c #ACACAC",
"~ 	c #838383",
"{ 	c #484848",
"] 	c #7E7E7E",
"^ 	c #BEBEBE",
"/ 	c #7F7F7F",
"( 	c #C2C2C2",
"_ 	c #A4A4A4",
": 	c #757575",
"< 	c #787878",
"[ 	c #6C6C6C",
"} 	c #DDDDDD",
"| 	c #848484",
"1 	c #A6A6A6",
"2 	c #C3C3C3",
"3 	c #6B6B6B",
"4 	c #818181",
"5 	c #525252",
"6 	c #272727",
"7 	c #575757",
"8 	c #979797",
"9 	c #A5A5A5",
"0 	c #B7B7B7",
"a 	c #9F9F9F",
"b 	c #ADADAD",
"c 	c #616161",
"d 	c #626262",
"e 	c #080808",
"f 	c #8D8D8D",
"g 	c #777777",
"h 	c #A7A7A7",
"i 	c #E9E9E9",
"j 	c #B9B9B9",
"k 	c #E3E3E3",
"l 	c #D6D6D6",
"m 	c #A9A9A9",
"n 	c #555555",
"o 	c #595959",
"p 	c #DADADA",
"q 	c #F5F5F5",
"r 	c #BDBDBD",
"s 	c #E6E6E6",
"t 	c #F2F2F2",
"u 	c #CDCDCD",
"v 	c #646464",
"w 	c #878787",
"x 	c #969696",
"y 	c #EFEFEF",
"z 	c #CACACA",
"A 	c #EAEAEA",
"B 	c #EEEEEE",
"C 	c #D5D5D5",
"D 	c #B3B3B3",
"E 	c #D8D8D8",
"F 	c #9E9E9E",
"G 	c #CECECE",
"H 	c #6F6F6F",
"I 	c #9A9A9A",
"J 	c #5B5B5B",
"K 	c #2F2F2F",
"L 	c #AEAEAE",
"M 	c #C7C7C7",
"N 	c #4E4E4E",
"O 	c #1E1E1E",
"P 	c #C0C0C0",
"Q 	c #E2E2E2",
"R 	c #B6B6B6",
"S 	c #A1A1A1",
"T 	c #D1D1D1",
"U 	c #C8C8C8",
"V 	c #585858",
"W 	c #BFBFBF",
"X 	c #5A5A5A",
"Y 	c #8E8E8E",
"Z 	c #A0A0A0",
"` 	c #7B7B7B",
" .	c #3C3C3C",
"..	c #B0B0B0",
"+.	c #5F5F5F",
"@.	c #7A7A7A",
"#.	c #A8A8A8",
"$.	c #707070",
"%.	c #737373",
"&.	c #2C2C2C",
"                                ",
"        . + @ # $ % & *         ",
"      = - ; > , ' ) ! ~         ",
"      { ] ) ^ / - ( _ : <       ",
"      + - [ } | 1 2 3 4 5       ",
"      6 7 8 9 0 a ! b c d e     ",
"      f g h i j k l ; | m n     ",
"    o m ] p q r s t u v w f     ",
"    = x b y i z A k B C D .     ",
"    3 : z E _ p _ p F G 1 H     ",
"    @ r r I % J K y L M 4 N     ",
"    O J P Q R F S t T U I V     ",
"      & | W h X Y Z r `  .      ",
"      . - ..j m Z | R +.        ",
"        @ d f - @.#.<           ",
"          $.%.+ &.=             "};
