/* XPM */
const char * axial_xpm[] = {
"25 25 176 2",
"  	c None",
". 	c #636363",
"+ 	c #575757",
"@ 	c #404040",
"# 	c #6E6E6E",
"$ 	c #444444",
"% 	c #1B1B1B",
"& 	c #4F4F4F",
"* 	c #777777",
"= 	c #5D5D5D",
"- 	c #515151",
"; 	c #2C2C2C",
"> 	c #535353",
", 	c #5E5E5E",
"' 	c #555555",
") 	c #9D9D9D",
"! 	c #545454",
"~ 	c #3A3A3A",
"{ 	c #1A1A1A",
"] 	c #5A5A5A",
"^ 	c #A6A6A6",
"/ 	c #646464",
"( 	c #7D7D7D",
"_ 	c #4D4D4D",
": 	c #595959",
"< 	c #8E8E8E",
"[ 	c #A3A3A3",
"} 	c #B3B3B3",
"| 	c #B1B1B1",
"1 	c #A9A9A9",
"2 	c #323232",
"3 	c #727272",
"4 	c #919191",
"5 	c #888888",
"6 	c #5B5B5B",
"7 	c #989898",
"8 	c #484848",
"9 	c #939393",
"0 	c #BDBDBD",
"a 	c #6B6B6B",
"b 	c #8D8D8D",
"c 	c #B8B8B8",
"d 	c #B7B7B7",
"e 	c #9A9A9A",
"f 	c #979797",
"g 	c #2B2B2B",
"h 	c #313131",
"i 	c #767676",
"j 	c #999999",
"k 	c #9B9B9B",
"l 	c #CECECE",
"m 	c #848484",
"n 	c #C4C4C4",
"o 	c #666666",
"p 	c #A0A0A0",
"q 	c #898989",
"r 	c #343434",
"s 	c #AFAFAF",
"t 	c #7E7E7E",
"u 	c #707070",
"v 	c #D9D9D9",
"w 	c #D4D4D4",
"x 	c #7A7A7A",
"y 	c #D7D7D7",
"z 	c #C5C5C5",
"A 	c #474747",
"B 	c #8A8A8A",
"C 	c #3E3E3E",
"D 	c #212121",
"E 	c #3C3C3C",
"F 	c #737373",
"G 	c #B2B2B2",
"H 	c #A4A4A4",
"I 	c #B9B9B9",
"J 	c #757575",
"K 	c #7C7C7C",
"L 	c #2D2D2D",
"M 	c #222222",
"N 	c #4E4E4E",
"O 	c #8B8B8B",
"P 	c #A7A7A7",
"Q 	c #A8A8A8",
"R 	c #BBBBBB",
"S 	c #ABABAB",
"T 	c #A5A5A5",
"U 	c #ACACAC",
"V 	c #A2A2A2",
"W 	c #5F5F5F",
"X 	c #808080",
"Y 	c #616161",
"Z 	c #141414",
"` 	c #818181",
" .	c #696969",
"..	c #AEAEAE",
"+.	c #F7F7F7",
"@.	c #E7E7E7",
"#.	c #D1D1D1",
"$.	c #B6B6B6",
"%.	c #797979",
"&.	c #9E9E9E",
"*.	c #333333",
"=.	c #686868",
"-.	c #9F9F9F",
";.	c #909090",
">.	c #B4B4B4",
",.	c #DCDCDC",
"'.	c #FDFDFD",
").	c #E0E0E0",
"!.	c #8C8C8C",
"~.	c #7F7F7F",
"{.	c #565656",
"].	c #949494",
"^.	c #787878",
"/.	c #E4E4E4",
"(.	c #F0F0F0",
"_.	c #F6F6F6",
":.	c #FAFAFA",
"<.	c #F3F3F3",
"[.	c #BABABA",
"}.	c #BFBFBF",
"|.	c #6A6A6A",
"1.	c #C7C7C7",
"2.	c #DFDFDF",
"3.	c #D8D8D8",
"4.	c #FBFBFB",
"5.	c #EEEEEE",
"6.	c #D2D2D2",
"7.	c #BEBEBE",
"8.	c #353535",
"9.	c #ECECEC",
"0.	c #DBDBDB",
"a.	c #D0D0D0",
"b.	c #DEDEDE",
"c.	c #E2E2E2",
"d.	c #F1F1F1",
"e.	c #F2F2F2",
"f.	c #DADADA",
"g.	c #C8C8C8",
"h.	c #C3C3C3",
"i.	c #CDCDCD",
"j.	c #6C6C6C",
"k.	c #E3E3E3",
"l.	c #D6D6D6",
"m.	c #525252",
"n.	c #D5D5D5",
"o.	c #F5F5F5",
"p.	c #676767",
"q.	c #4C4C4C",
"r.	c #414141",
"s.	c #838383",
"t.	c #373737",
"u.	c #E5E5E5",
"v.	c #D3D3D3",
"w.	c #C2C2C2",
"x.	c #1D1D1D",
"y.	c #626262",
"z.	c #CFCFCF",
"A.	c #F4F4F4",
"B.	c #959595",
"C.	c #606060",
"D.	c #A1A1A1",
"E.	c #AAAAAA",
"F.	c #CCCCCC",
"G.	c #363636",
"H.	c #929292",
"I.	c #858585",
"J.	c #CBCBCB",
"K.	c #747474",
"L.	c #191919",
"M.	c #8F8F8F",
"N.	c #969696",
"O.	c #585858",
"P.	c #868686",
"Q.	c #656565",
"R.	c #464646",
"S.	c #5C5C5C",
"                                                  ",
"              . + @ # $ % & * = - ;               ",
"            > , ' ) ! ~ { ] ^ / ( _ &             ",
"          : < [ } | 1 ] 2 3 4 1 ^ 5 6             ",
"          = 7 8 9 0 } a _ b c d e f * g           ",
"        h > i j k l e m e d n | 9 o p q           ",
"        r # s t u v w x t y z c A x B '           ",
"        C D E F q c G H 9 j 0 I J K a L           ",
"        + M N O ) P Q R S T U V } W X Y Z         ",
"        ( `  ...P l +.z w @.#.$.G t %.&.A         ",
"      *.=.-.J ;.>.,.'.&.I '.).c P !.V } ~.        ",
"      {.].S ^.../.(._.0 #.:.<./.R = [.%.B         ",
"      N b }.|.1.(.2.'.n 3.4.y 5.6.7.$.c ' 8.      ",
"      + i ^.3.9.5.@.0.a.b.c.d.e.e./.f.9 K ~       ",
"      |.i %.g.h.b.i.j.k.c.( v ..^ l.< U m m.      ",
"      W >.z n.a ^ o.p.6 q.r._.1.A 0.0 s.*.%       ",
"      o k | } ).k %.x  .] t.u.b.v.w.].^.3         ",
"      x.y.. 7.z.c.w B e 9 s A.v z.v.R B.C.        ",
"        o # m 1.#.b Q D.< E.3.F.#.j W  .          ",
"        G.F F n c z ~.& B B H.I.J.K.T L.          ",
"          / M.G } g.Q p x 7.m R }  .=             ",
"          E N.O.| f }.P ].U b P.D.Y               ",
"            / m 6 H.i ].Q.O Q q #                 ",
"              R.* 5 m.{.C *.S.p.                  ",
"                                                  "};
