/* XPM */
const char * box_xpm[] = {
"16 16 3 1",
" 	c None",
".	c #2D37FF",
"+	c #A3FFFF",
"      .         ",
"    .....       ",
"  ..++.++...    ",
" .++++.+++++... ",
"...+++.+++++++..",
".++....+++++..+.",
".+++++..+++.+++.",
".+++++.+...++++.",
".++++..++.+++++.",
".+++..+...+++++.",
".+..+++++..++++.",
"..+++++++.+...+.",
"..+++++++.++++. ",
"  ...++++.++..  ",
"     ...+.+.    ",
"        ...     "};

