/* XPM */
const char * box_eye_xpm[] = {
"16 16 5 1",
" 	c None",
".	c #000000",
"+	c #FFFFFF",
"@	c #2D37FF",
"#	c #A3FFFF",
"   .....        ",
" ..+++++..      ",
".+++...+++.@    ",
".+++...+++.#@@@ ",
"@..+++++..####@@",
"@##.....####@@#@",
"@#####@@###@###@",
"@#####@#@@@####@",
"@####@@##@#####@",
"@###@@#@@@#####@",
"@#@@#####@@####@",
"@@#######@#@@@#@",
"@@#######@####@ ",
"  @@@####@##@@  ",
"     @@@#@#@    ",
"        @@@     "};

