/* XPM */
const char * box_off_xpm[] = {
"16 16 6 1",
" 	c None",
".	c #2D37FF",
"+	c #A3FFFF",
"@	c #FF0000",
"#	c #808080",
"$	c #000000",
"      .         ",
"    .....       ",
"  ..++.++..@    ",
" .+@@#.+++@@@.. ",
"...+@@#++@@@@@..",
".++..@@@@@@@$$+.",
".+++++@@@@@$+++.",
".+++++@@@@$++++.",
".++++@@@@@@++++.",
".+++.@@$.@@@+++.",
".+..@@$++.@@@++.",
"..++@$+++.+@@#+.",
"..+@$++++.++@$. ",
"  .$.++++.++.$  ",
"     ...+.+.    ",
"        ...     "};

