/* XPM */
const char * cor_xpm[] = {
"25 25 139 2",
"  	c None",
". 	c #282828",
"+ 	c #4B4B4B",
"@ 	c #575757",
"# 	c #4D4D4D",
"$ 	c #484848",
"% 	c #3B3B3B",
"& 	c #434343",
"* 	c #4E4E4E",
"= 	c #262626",
"- 	c #444444",
"; 	c #5F5F5F",
"> 	c #2E2E2E",
", 	c #7C7C7C",
"' 	c #565656",
") 	c #515151",
"! 	c #676767",
"~ 	c #818181",
"{ 	c #454545",
"] 	c #474747",
"^ 	c #323232",
"/ 	c #717171",
"( 	c #606060",
"_ 	c #5A5A5A",
": 	c #5C5C5C",
"< 	c #494949",
"[ 	c #696969",
"} 	c #969696",
"| 	c #949494",
"1 	c #888888",
"2 	c #585858",
"3 	c #505050",
"4 	c #5E5E5E",
"5 	c #252525",
"6 	c #4F4F4F",
"7 	c #757575",
"8 	c #828282",
"9 	c #919191",
"0 	c #8E8E8E",
"a 	c #9E9E9E",
"b 	c #A9A9A9",
"c 	c #787878",
"d 	c #A8A8A8",
"e 	c #9C9C9C",
"f 	c #666666",
"g 	c #525252",
"h 	c #6B6B6B",
"i 	c #1F1F1F",
"j 	c #222222",
"k 	c #3A3A3A",
"l 	c #6A6A6A",
"m 	c #B0B0B0",
"n 	c #B8B8B8",
"o 	c #BBBBBB",
"p 	c #909090",
"q 	c #878787",
"r 	c #ABABAB",
"s 	c #C0C0C0",
"t 	c #BCBCBC",
"u 	c #A7A7A7",
"v 	c #A4A4A4",
"w 	c #8A8A8A",
"x 	c #5D5D5D",
"y 	c #8C8C8C",
"z 	c #999999",
"A 	c #A6A6A6",
"B 	c #B9B9B9",
"C 	c #C5C5C5",
"D 	c #D6D6D6",
"E 	c #BDBDBD",
"F 	c #C6C6C6",
"G 	c #B3B3B3",
"H 	c #C7C7C7",
"I 	c #B5B5B5",
"J 	c #686868",
"K 	c #353535",
"L 	c #121212",
"M 	c #5B5B5B",
"N 	c #A5A5A5",
"O 	c #939393",
"P 	c #BFBFBF",
"Q 	c #CFCFCF",
"R 	c #9B9B9B",
"S 	c #3D3D3D",
"T 	c #2A2A2A",
"U 	c #C2C2C2",
"V 	c #CDCDCD",
"W 	c #8F8F8F",
"X 	c #858585",
"Y 	c #B4B4B4",
"Z 	c #6E6E6E",
"` 	c #B2B2B2",
" .	c #313131",
"..	c #BEBEBE",
"+.	c #D5D5D5",
"@.	c #7A7A7A",
"#.	c #404040",
"$.	c #838383",
"%.	c #616161",
"&.	c #B6B6B6",
"*.	c #F3F3F3",
"=.	c #EAEAEA",
"-.	c #C4C4C4",
";.	c #8B8B8B",
">.	c #232323",
",.	c #727272",
"'.	c #A0A0A0",
").	c #F4F4F4",
"!.	c #F0F0F0",
"~.	c #E2E2E2",
"{.	c #D7D7D7",
"].	c #ACACAC",
"^.	c #626262",
"/.	c #464646",
"(.	c #6C6C6C",
"_.	c #CECECE",
":.	c #B1B1B1",
"<.	c #848484",
"[.	c #AFAFAF",
"}.	c #959595",
"|.	c #929292",
"1.	c #3F3F3F",
"2.	c #E8E8E8",
"3.	c #2F2F2F",
"4.	c #4A4A4A",
"5.	c #AAAAAA",
"6.	c #868686",
"7.	c #F6F6F6",
"8.	c #3E3E3E",
"9.	c #1E1E1E",
"0.	c #C3C3C3",
"a.	c #333333",
"b.	c #797979",
"c.	c #BABABA",
"d.	c #8D8D8D",
"e.	c #545454",
"f.	c #7D7D7D",
"g.	c #979797",
"h.	c #363636",
"                                                  ",
"                                                  ",
"                                                  ",
"                                                  ",
"                . + @ # $ % & * =                 ",
"            & - ; > , ' ) ! ~ { ] ]               ",
"          ^ / ( _ ( : < [ } | 1 2 3 4 5           ",
"        6 7 8 9 0 a b { c ^ d e f ; g h i         ",
"      j ; + k l m n o p q r s t u v w 7 x         ",
"      3 y z A n B C C D E F G H o I r J K         ",
"      L M N O ; P Q R S T v U V W X Y ) O         ",
"      2 4 ( . Z ` C o 3  ...+.s @.#.q $.%.        ",
"      > i & ! &.A +.*.z g =.+.-.B ;.J 5 h         ",
"      >.,.| %.'.m +.).!.!.~.{.B ].^.$.W @         ",
"      /.: 4 (._.:.].d 4 [ e } v V <.) ~ #         ",
"      . X [.}.].|.%.1.2.{.3.4.~ 5.~ q 4 !         ",
"        x I P ` 6.4 7.# ; 8.9.7 '.0.( 0 a.        ",
"          J e 5.c }         x b.[.c./ d.          ",
"          e.@.f l            .f.;.: g.h.          ",
"                                5                 ",
"                                                  ",
"                                                  ",
"                                                  ",
"                                                  ",
"                                                  "};
