/* XPM */
static char * cor_xpm[] = {
"16 16 74 1",
" 	c None",
".	c #3E3E3E",
"+	c #4F4F4F",
"@	c #484848",
"#	c #555555",
"$	c #6C6C6C",
"%	c #3C3C3C",
"&	c #464646",
"*	c #3B3B3B",
"=	c #7B7B7B",
"-	c #636363",
";	c #6F6F6F",
">	c #454545",
",	c #787878",
"'	c #999999",
")	c #6D6D6D",
"!	c #535353",
"~	c #3A3A3A",
"{	c #242424",
"]	c #444444",
"^	c #A2A2A2",
"/	c #B9B9B9",
"(	c #838383",
"_	c #898989",
":	c #BEBEBE",
"<	c #A5A5A5",
"[	c #959595",
"}	c #797979",
"|	c #525252",
"1	c #3F3F3F",
"2	c #9C9C9C",
"3	c #A8A8A8",
"4	c #B7B7B7",
"5	c #C4C4C4",
"6	c #A6A6A6",
"7	c #A3A3A3",
"8	c #AAAAAA",
"9	c #575757",
"0	c #666666",
"a	c #313131",
"b	c #C6C6C6",
"c	c #515151",
"d	c #727272",
"e	c #D4D4D4",
"f	c #949494",
"g	c #474747",
"h	c #888888",
"i	c #5F5F5F",
"j	c #262626",
"k	c #747474",
"l	c #E9E9E9",
"m	c #CBCBCB",
"n	c #D8D8D8",
"o	c #BBBBBB",
"p	c #757575",
"q	c #5A5A5A",
"r	c #5E5E5E",
"s	c #828282",
"t	c #B5B5B5",
"u	c #616161",
"v	c #808080",
"w	c #919191",
"x	c #C3C3C3",
"y	c #B4B4B4",
"z	c #929292",
"A	c #868686",
"B	c #606060",
"C	c #272727",
"D	c #A4A4A4",
"E	c #9B9B9B",
"F	c #9A9A9A",
"G	c #5B5B5B",
"H	c #7C7C7C",
"I	c #3D3D3D",
"                ",
"                ",
"                ",
"    .+@#+$%&    ",
"   *=-;>,')!~   ",
"  {!]^/(_:<[}|  ",
"  12345674/8;!  ",
"  90a3bcdefghi  ",
"  j-k3lemnopq-  ",
"  grst3uvwx,,@  ",
"   <yz,ABC[D=1  ",
"   qE}F  G27H   ",
"          I     ",
"                ",
"                ",
"                "};
