/* XPM */
static const char *glyph_xpm[] = {
/* columns rows colors chars-per-pixel */
"25 25 159 2",
"   c #55353F",
".  c #3F3F7A",
"X  c #3A3A7D",
"o  c #5C1E7E",
"O  c #7A0C7B",
"+  c #6C1375",
"@  c #4D3E6B",
"#  c #483A6E",
"$  c #423871",
"%  c #7C3E66",
"&  c #324A4D",
"*  c #2A4952",
"=  c #345D51",
"-  c #36664E",
";  c #1C526F",
":  c #1A5E6B",
">  c #084E7B",
",  c #155A70",
"<  c #215660",
"1  c #177F71",
"2  c #256A60",
"3  c #435945",
"4  c #5C4D59",
"5  c #654455",
"6  c #6A455F",
"7  c #504F7B",
"8  c #635878",
"9  c #736671",
"0  c #6B727B",
"q  c #812175",
"w  c #956C7E",
"e  c #529832",
"r  c #14975D",
"t  c #20A34F",
"y  c #1B8462",
"u  c #0D9E75",
"i  c #1DB771",
"p  c #4ACC69",
"a  c #94BD7F",
"s  c #84C053",
"d  c #180786",
"f  c #1D1A82",
"g  c #2A149D",
"h  c #1E2198",
"j  c #303788",
"k  c #262997",
"l  c #3B2F9D",
"z  c #2504AB",
"x  c #2913B6",
"c  c #3C21A9",
"v  c #413C88",
"b  c #64209E",
"n  c #7F09A1",
"m  c #4D2EAC",
"M  c #5B39A7",
"N  c #532DB3",
"B  c #6127B1",
"V  c #0A548B",
"C  c #214281",
"Z  c #324283",
"A  c #275287",
"S  c #067396",
"D  c #34639F",
"F  c #246CA6",
"G  c #414D83",
"H  c #4D4D8B",
"J  c #475A8F",
"K  c #565084",
"L  c #6F4884",
"P  c #68429A",
"I  c #5A7193",
"U  c #7D7680",
"Y  c #727088",
"T  c #6A6F9D",
"R  c #77759E",
"E  c #7A7AA6",
"W  c #3C0AC6",
"Q  c #3F1ED6",
"!  c #4409DC",
"~  c #5217D5",
"^  c #492BD3",
"/  c #6724DB",
"(  c #7930D7",
")  c #5E05F1",
"_  c #5C15F5",
"`  c #791BEE",
"'  c #7C17F9",
"]  c #6424EB",
"[  c #8E3E91",
"{  c #9310AE",
"}  c #9929A9",
"|  c #903FB3",
" . c #906D9A",
".. c #880CC7",
"X. c #9B0FD6",
"o. c #9E29CE",
"O. c #8739CA",
"+. c #8513E1",
"@. c #8318FF",
"#. c #9725E8",
"$. c #9629F8",
"%. c #B027F4",
"&. c #D56EFE",
"*. c #0C8B81",
"=. c #088E90",
"-. c #078798",
";. c #11AE89",
":. c #1BB39D",
">. c #1780AC",
",. c #1F9DB2",
"<. c #3591B8",
"1. c #20ADAC",
"2. c #6C888F",
"3. c #4985AE",
"4. c #40AFBB",
"5. c #5AA3B2",
"6. c #34C98B",
"7. c #42CEA3",
"8. c #45C4B3",
"9. c #6EC5B4",
"0. c #84A38C",
"q. c #9187A9",
"w. c #918DAE",
"e. c #AB83A5",
"r. c #9DADBA",
"t. c #B0A7BC",
"y. c #BCA1BB",
"u. c #AFB5BC",
"i. c #C6ADBE",
"p. c #89E8A7",
"a. c #BABBCA",
"s. c #B9B9CC",
"d. c #BCC2C9",
"f. c #BDC4D3",
"g. c #98E8C4",
"h. c #C5C7CC",
"j. c #C9C7CB",
"k. c #C4C4D4",
"l. c #C4CED8",
"z. c #C9CCD9",
"x. c #C9CCDA",
"c. c #CED1DC",
"v. c #D4D5E0",
"b. c #D4D7E0",
"n. c #E6E1E7",
"m. c #E8E3E6",
"M. c #E0E4E9",
"N. c #EAE8EC",
"B. c #EFEAED",
"V. c #F1EFF1",
"C. c #F0F0F1",
"Z. c #F0F1F2",
"A. c #F4F1F2",
"S. c #F6F7F8",
"D. c #FBFBFC",
"F. c gray99",
"G. c #FDFDFD",
"H. c #FEFEFE",
"J. c gray100",
/* pixels */
"J.J.J.J.J.J.J.J.J.J.J.J.J.J.J.J.J.J.J.J.J.J.J.J.J.",
"J.J.J.J.J.J.J.J.J.J.J.J.J.J.J.D.c.b.J.J.J.J.J.J.J.",
"J.J.J.J.J.J.J.J.J.J.J.J.J.J.x.j h k T G.J.J.J.J.J.",
"J.J.J.J.J.J.J.J.J.J.J.J.J.v.f x Q ^ l a.J.J.J.J.J.",
"J.J.J.J.J.J.J.J.J.J.J.J.H.v z ! _ ] N w.J.J.J.J.J.",
"J.J.J.J.J.J.J.J.J.J.J.J.k.d W ) @.` B q.J.J.J.J.J.",
"J.J.J.J.J.J.J.J.J.J.J.J.E g ~ ' &.+.b t.J.J.J.J.J.",
"J.J.J.J.J.J.J.J.J.J.J.J.H c / $.%...o N.J.J.J.J.J.",
"J.J.J.J.J.J.J.J.J.J.J.J.X m ( #.X.n  .J.J.J.J.J.J.",
"J.J.J.J.J.J.J.J.J.J.J.J.. M O.o.{ + n.J.J.J.J.J.J.",
"J.J.J.J.J.J.J.J.J.J.J.J.7 P | } O y.J.J.J.J.J.J.J.",
"J.J.J.J.J.J.J.J.J.J.J.J.Y L [ q e.J.J.J.J.J.J.J.J.",
"J.J.J.J.J.J.J.J.J.J.B.w   6 % i.J.J.J.J.J.J.J.J.J.",
"J.J.J.J.J.J.J.J.J.m.5 3 e 9 A.J.J.J.J.J.J.J.J.J.J.",
"J.J.J.J.J.J.J.J.V.4 - t s 8 J.J.J.J.J.J.J.J.J.J.J.",
"J.J.J.J.J.J.J.J.U = r p a @ J.J.J.J.J.J.J.J.J.J.J.",
"J.J.J.J.J.J.J.j.& y i p.0.# J.J.J.J.J.J.J.J.J.J.J.",
"J.J.J.J.J.J.J.0 2 u 6.g.2.$ J.J.J.J.J.J.J.J.J.J.J.",
"J.J.J.J.J.J.C.* 1 ;.7.9.I K J.J.J.J.J.J.J.J.J.J.J.",
"J.J.J.J.J.J.h.< *.:.8.5.J R J.J.J.J.J.J.J.J.J.J.J.",
"J.J.J.J.J.J.u.: =.1.4.3.Z s.J.J.J.J.J.J.J.J.J.J.J.",
"J.J.J.J.J.J.d., -.,.<.D G F.J.J.J.J.J.J.J.J.J.J.J.",
"J.J.J.J.J.J.Z.; S >.F C z.J.J.J.J.J.J.J.J.J.J.J.J.",
"J.J.J.J.J.J.J.r.> V A f.J.J.J.J.J.J.J.J.J.J.J.J.J.",
"J.J.J.J.J.J.J.J.M.l.S.J.J.J.J.J.J.J.J.J.J.J.J.J.J."
};
