/* XPM */
const char * grid_xpm[] = {
"16 16 5 1",
" 	c None",
".	c #000000",
"+	c #008A00",
"@	c #FFFFFF",
"#	c #808080",
" .   .   .   .  ",
" .   .   .   .  ",
"........ .   .  ",
" .   .  ........",
" .  +++  .   .  ",
" . +@@++ .   .  ",
"...+@@++#.   .  ",
" . +++++#.......",
" .  +++##.   .  ",
" .   ### .   .  ",
" .   .   .   .  ",
"........ .   .  ",
" .   .  ........",
" .   .   .   .  ",
" .   .   .   .  ",
" .   .   .   .  "};

