/* XPM */
const char * grid_spline_xpm[] = {
"16 16 8 1",
" 	c #C2C2C2",
".	c #222222",
"+	c #8F8F8F",
"@	c #424242",
"#	c #9C9C9C",
"$	c #434343",
"%	c #757575",
"&	c #5C5C5C",
" .+++.@@@.   .  ",
" .+++.@@@.   .  ",
"................",
" .###.$$$.%%%.  ",
" .###.$$$.%%%.  ",
" .###.$$$.%%%.  ",
"................",
" .%%%.&&&.&&&.&&",
" .%%%.&&&.&&&.&&",
" .%%%.&&&.&&&.&&",
" .%%%.&&&.&&&.&&",
"................",
" .%%%.&&&.###.  ",
" .%%%.&&&.###.  ",
" .%%%.&&&.###.  ",
"................"};

