/* XPM */
const char * iso_surface_xpm[] = {
"16 16 100 2",
"  	c None",
". 	c #4A4A4A",
"+ 	c #606060",
"@ 	c #808080",
"# 	c #868686",
"$ 	c #7E7E7E",
"% 	c #676767",
"& 	c #5A5A5A",
"* 	c #747474",
"= 	c #A2A2A2",
"- 	c #ADADAD",
"; 	c #959595",
"> 	c #969696",
", 	c #939393",
"' 	c #838383",
") 	c #717171",
"! 	c #5C5C5C",
"~ 	c #5F5F5F",
"{ 	c #818181",
"] 	c #A5A5A5",
"^ 	c #9D9D9D",
"/ 	c #A4A4A4",
"( 	c #BABABA",
"_ 	c #B8B8B8",
": 	c #A0A0A0",
"< 	c #787878",
"[ 	c #5E5E5E",
"} 	c #767676",
"| 	c #9A9A9A",
"1 	c #C3C3C3",
"2 	c #D2D2D2",
"3 	c #D0D0D0",
"4 	c #CECECE",
"5 	c #B5B5B5",
"6 	c #A7A7A7",
"7 	c #727272",
"8 	c #4F4F4F",
"9 	c #AFAFAF",
"0 	c #B6B6B6",
"a 	c #C6C6C6",
"b 	c #D7D7D7",
"c 	c #DDDDDD",
"d 	c #E0E0E0",
"e 	c #D1D1D1",
"f 	c #BBBBBB",
"g 	c #B7B7B7",
"h 	c #8D8D8D",
"i 	c #626262",
"j 	c #A9A9A9",
"k 	c #C4C4C4",
"l 	c #C5C5C5",
"m 	c #D8D8D8",
"n 	c #E2E2E2",
"o 	c #E4E4E4",
"p 	c #DFDFDF",
"q 	c #C7C7C7",
"r 	c #B1B1B1",
"s 	c #919191",
"t 	c #6C6C6C",
"u 	c #6A6A6A",
"v 	c #A1A1A1",
"w 	c #DCDCDC",
"x 	c #D5D5D5",
"y 	c #A6A6A6",
"z 	c #909090",
"A 	c #6D6D6D",
"B 	c #7F7F7F",
"C 	c #BFBFBF",
"D 	c #BCBCBC",
"E 	c #D4D4D4",
"F 	c #E3E3E3",
"G 	c #E6E6E6",
"H 	c #E7E7E7",
"I 	c #C0C0C0",
"J 	c #B2B2B2",
"K 	c #686868",
"L 	c #8A8A8A",
"M 	c #E1E1E1",
"N 	c #E8E8E8",
"O 	c #BDBDBD",
"P 	c #8C8C8C",
"Q 	c #DBDBDB",
"R 	c #B3B3B3",
"S 	c #999999",
"T 	c #595959",
"U 	c #7C7C7C",
"V 	c #D3D3D3",
"W 	c #C1C1C1",
"X 	c #7B7B7B",
"Y 	c #707070",
"Z 	c #7D7D7D",
"` 	c #ABABAB",
" .	c #CACACA",
"..	c #BEBEBE",
"+.	c #989898",
"@.	c #646464",
"#.	c #777777",
"$.	c #8E8E8E",
"%.	c #8B8B8B",
"&.	c #636363",
"                                ",
"                                ",
"          . + @ # $ $ %         ",
"        & * = - ; > , ' ) !     ",
"      ~ { ] ^ / ( _ - : = < !   ",
"    [ } | = 1 2 2 3 4 5 = 6 7 8 ",
"  ~ } 9 0 a 2 b c d c e f g h i ",
"  ) j k l m d n d o p m q r s t ",
"u v 1 3 w n n o n o c x k y z A ",
"B C D E c F G H p c 3 I _ J z K ",
"L C f c M N N o E 4 O 1 3 _ { ! ",
"P 9 D Q o N F m O R l 4 1 S < T ",
"U h r V M F Q W ] q l C y X Y   ",
"  Y Z `  .e k ; ` .._ +.} @ @.  ",
"      i #.$.%.Y $.@ &.          ",
"                                "};

