/* XPM */
const char * rulertool_xpm[] = {
"16 16 24 1",
" 	c None",
".	c #447DCE",
"+	c #3C81CE",
"@	c #437CCD",
"#	c #4C81CD",
"$	c #4B82C7",
"%	c #4177C5",
"&	c #4179C9",
"*	c #3568B2",
"=	c #3F76C5",
"-	c #3E7FCE",
";	c #3C73C1",
">	c #3468B1",
",	c #5585C9",
"'	c #3062AA",
")	c #2AA0D6",
"!	c #3B71BE",
"~	c #28A5DA",
"{	c #13CBE8",
"]	c #22AFDD",
"^	c #13CCE8",
"/	c #60BFDC",
"(	c #12CAE6",
"_	c #20AEDB",
"                ",
"                ",
"                ",
"                ",
"                ",
"        .+      ",
"       @#$%  &* ",
"       &=-  ;>,'",
"      )       ! ",
"     ~          ",
"   ~            ",
" {]             ",
"^/(             ",
" _              ",
"                ",
"                "};
