/* XPM */
const char * sag_xpm[] = {
"25 25 156 2",
"  	c None",
". 	c #272727",
"+ 	c #202020",
"@ 	c #282828",
"# 	c #474747",
"$ 	c #343434",
"% 	c #222222",
"& 	c #333333",
"* 	c #3E3E3E",
"= 	c #2F2F2F",
"- 	c #4A4A4A",
"; 	c #555555",
"> 	c #535353",
", 	c #3A3A3A",
"' 	c #353535",
") 	c #303030",
"! 	c #232323",
"~ 	c #373737",
"{ 	c #3D3D3D",
"] 	c #2C2C2C",
"^ 	c #3C3C3C",
"/ 	c #626262",
"( 	c #434343",
"_ 	c #454545",
": 	c #525252",
"< 	c #3F3F3F",
"[ 	c #585858",
"} 	c #323232",
"| 	c #676767",
"1 	c #292929",
"2 	c #5F5F5F",
"3 	c #404040",
"4 	c #5D5D5D",
"5 	c #505050",
"6 	c #363636",
"7 	c #545454",
"8 	c #656565",
"9 	c #6B6B6B",
"0 	c #686868",
"a 	c #7C7C7C",
"b 	c #707070",
"c 	c #7B7B7B",
"d 	c #2D2D2D",
"e 	c #393939",
"f 	c #101010",
"g 	c #4F4F4F",
"h 	c #6D6D6D",
"i 	c #7A7A7A",
"j 	c #7E7E7E",
"k 	c #7D7D7D",
"l 	c #848484",
"m 	c #787878",
"n 	c #595959",
"o 	c #616161",
"p 	c #242424",
"q 	c #313131",
"r 	c #383838",
"s 	c #727272",
"t 	c #CACACA",
"u 	c #B0B0B0",
"v 	c #838383",
"w 	c #929292",
"x 	c #9F9F9F",
"y 	c #A2A2A2",
"z 	c #828282",
"A 	c #959595",
"B 	c #7F7F7F",
"C 	c #8B8B8B",
"D 	c #8E8E8E",
"E 	c #989898",
"F 	c #4D4D4D",
"G 	c #414141",
"H 	c #464646",
"I 	c #2A2A2A",
"J 	c #D7D7D7",
"K 	c #2B2B2B",
"L 	c #494949",
"M 	c #EBEBEB",
"N 	c #F0F0F0",
"O 	c #FAFAFA",
"P 	c #858585",
"Q 	c #919191",
"R 	c #797979",
"S 	c #484848",
"T 	c #CECECE",
"U 	c #B6B6B6",
"V 	c #D3D3D3",
"W 	c #ADADAD",
"X 	c #FEFEFE",
"Y 	c #6C6C6C",
"Z 	c #A1A1A1",
"` 	c #636363",
" .	c #424242",
"..	c #252525",
"+.	c #E6E6E6",
"@.	c #DDDDDD",
"#.	c #5C5C5C",
"$.	c #808080",
"%.	c #ACACAC",
"&.	c #777777",
"*.	c #B5B5B5",
"=.	c #6A6A6A",
"-.	c #949494",
";.	c #898989",
">.	c #757575",
",.	c #737373",
"'.	c #9C9C9C",
").	c #9B9B9B",
"!.	c #818181",
"~.	c #666666",
"{.	c #C6C6C6",
"].	c #B8B8B8",
"^.	c #191919",
"/.	c #696969",
"(.	c #F9F9F9",
"_.	c #EDEDED",
":.	c #A3A3A3",
"<.	c #515151",
"[.	c #D6D6D6",
"}.	c #AFAFAF",
"|.	c #606060",
"1.	c #868686",
"2.	c #4E4E4E",
"3.	c #565656",
"4.	c #4C4C4C",
"5.	c #6E6E6E",
"6.	c #D9D9D9",
"7.	c #E2E2E2",
"8.	c #C8C8C8",
"9.	c #0D0D0D",
"0.	c #575757",
"a.	c #C4C4C4",
"b.	c #DCDCDC",
"c.	c #D1D1D1",
"d.	c #9A9A9A",
"e.	c #C7C7C7",
"f.	c #BDBDBD",
"g.	c #DADADA",
"h.	c #EAEAEA",
"i.	c #3B3B3B",
"j.	c #ABABAB",
"k.	c #A9A9A9",
"l.	c #5B5B5B",
"m.	c #040404",
"n.	c #C9C9C9",
"o.	c #D0D0D0",
"p.	c #D4D4D4",
"q.	c #979797",
"r.	c #D5D5D5",
"s.	c #4B4B4B",
"t.	c #AAAAAA",
"u.	c #212121",
"v.	c #B4B4B4",
"w.	c #8F8F8F",
"x.	c #D2D2D2",
"y.	c #BFBFBF",
"                                                  ",
"                                                  ",
"                                                  ",
"                        . + @ # $                 ",
"                % & * = - # ; > , $               ",
"            ' ) ! ~ { ] ^ * = / ( _ : <           ",
"        . ' = @ # ) [ } = | 1 2 3 4 5 = 6         ",
"      . # % ( , ; ) 7 8 9 ( 2 0 a b / c d ~       ",
"    . e < ' > f g h 8 b i j 0 k / 0 l l m n o     ",
"  p + q r g 3 s o t u v w x y z A B C D v E m F   ",
"  . G ; H = I x J K q L t M N O P B Q l 9 q R S   ",
"  K * # G < T U & { V D A s W X v | Y Z j B ` #  .",
"  3 ' ..: , +.@.#.j $.%.t &.; *.=., e -.;.>.# &._ ",
"  $ q 1 ; R b ; ,.'.).!.~.9 {.y g y ].h v l ` k , ",
"  ^.5 = o , 9 ) 1 Y /.w $.(._.:.*.<.[.}.H h |.1.9 ",
"    & L 2.3.~.3 * & '.4.5.{ 6.7.}.7.8.U 5.0 5 F 9.",
"        : 0.-       < 6 i a.M b.# , c.{.d.;.< ]   ",
"                        = e.f.g.h.i.%.j.k.<.l.m.  ",
"                          r n.o.p.( W A / ~ ,     ",
"                            _ q.r.s.t.A * u.      ",
"                              } p.v.) w.I         ",
"                                x.y.)             ",
"                                                  ",
"                                                  ",
"                                                  "};
