/* XPM */
static char * sag_xpm[] = {
"16 16 98 2",
"  	c None",
". 	c #262626",
"+ 	c #2D2D2D",
"@ 	c #3B3B3B",
"# 	c #353535",
"$ 	c #202020",
"% 	c #3A3A3A",
"& 	c #2C2C2C",
"* 	c #414141",
"= 	c #3C3C3C",
"- 	c #4C4C4C",
"; 	c #404040",
"> 	c #444444",
", 	c #2F2F2F",
"' 	c #303030",
") 	c #494949",
"! 	c #3D3D3D",
"~ 	c #505050",
"{ 	c #333333",
"] 	c #535353",
"^ 	c #626262",
"/ 	c #313131",
"( 	c #383838",
"_ 	c #323232",
": 	c #454545",
"< 	c #5E5E5E",
"[ 	c #6D6D6D",
"} 	c #767676",
"| 	c #646464",
"1 	c #6B6B6B",
"2 	c #848484",
"3 	c #5D5D5D",
"4 	c #3E3E3E",
"5 	c #3F3F3F",
"6 	c #919191",
"7 	c #929292",
"8 	c #6C6C6C",
"9 	c #B8B8B8",
"0 	c #C3C3C3",
"a 	c #9B9B9B",
"b 	c #828282",
"c 	c #8C8C8C",
"d 	c #777777",
"e 	c #7C7C7C",
"f 	c #464646",
"g 	c #343434",
"h 	c #484848",
"i 	c #CFCFCF",
"j 	c #707070",
"k 	c #8D8D8D",
"l 	c #838383",
"m 	c #B6B6B6",
"n 	c #B4B4B4",
"o 	c #676767",
"p 	c #989898",
"q 	c #7A7A7A",
"r 	c #686868",
"s 	c #363636",
"t 	c #272727",
"u 	c #565656",
"v 	c #B0B0B0",
"w 	c #727272",
"x 	c #939393",
"y 	c #969696",
"z 	c #7F7F7F",
"A 	c #878787",
"B 	c #787878",
"C 	c #898989",
"D 	c #545454",
"E 	c #393939",
"F 	c #242424",
"G 	c #8E8E8E",
"H 	c #BABABA",
"I 	c #EAEAEA",
"J 	c #B5B5B5",
"K 	c #606060",
"L 	c #7B7B7B",
"M 	c #555555",
"N 	c #515151",
"O 	c #4D4D4D",
"P 	c #E9E9E9",
"Q 	c #888888",
"R 	c #CBCBCB",
"S 	c #868686",
"T 	c #474747",
"U 	c #2B2B2B",
"V 	c #6E6E6E",
"W 	c #BFBFBF",
"X 	c #F7F7F7",
"Y 	c #A9A9A9",
"Z 	c #595959",
"` 	c #616161",
" .	c #D3D3D3",
"..	c #A3A3A3",
"+.	c #A1A1A1",
"@.	c #A6A6A6",
"#.	c #747474",
"$.	c #1D1D1D",
"                                ",
"                                ",
"                . + @           ",
"        # $ % & * = - ; >       ",
"      , ' ) @ ! ~ { ] ^ * /     ",
"    ( _ : > < [ } | 1 1 2 ^ 3   ",
"  . 4 > 5 6 7 8 9 0 a b c d e f ",
"  g h g i ) j k l m n o p q r * ",
"  s t u v w x y z A j w B C D | ",
"  E _ * ^ F 1 G H I J K 0 h < L ",
"      M N   O % b P C Q R S T U ",
"                V W X ; Y Q Z   ",
"                  `  .) ..#     ",
"                    +.@.#.$.    ",
"                                ",
"                                "};
