/* XPM */
const char * tubes_xpm[] = {
"16 16 102 2",
"  	c None",
". 	c #AE0404",
"+ 	c #FF353F",
"@ 	c #FE7293",
"# 	c #5B0101",
"$ 	c #F41616",
"% 	c #FE6682",
"& 	c #FF536C",
"* 	c #D80A0A",
"= 	c #C40606",
"- 	c #FF4355",
"; 	c #FE6E90",
"> 	c #FF2121",
", 	c #860202",
"' 	c #012C70",
") 	c #1F78FF",
"! 	c #8A0202",
"~ 	c #FF4557",
"{ 	c #0446B0",
"] 	c #41A0FF",
"^ 	c #6ACDFF",
"/ 	c #1569EF",
"( 	c #011330",
"_ 	c #DE0C0C",
": 	c #FF556D",
"< 	c #F61616",
"[ 	c #5D0101",
"} 	c #0D5EDE",
"| 	c #61C4FF",
"1 	c #4EAEFF",
"2 	c #064FC1",
"3 	c #B00404",
"4 	c #FF313B",
"5 	c #AB0303",
"6 	c #023380",
"7 	c #257FFF",
"8 	c #70D4FF",
"9 	c #2B86FF",
"0 	c #02388C",
"a 	c #700202",
"b 	c #FA1A1A",
"c 	c #FE6884",
"d 	c #FF516A",
"e 	c #DA0A0A",
"f 	c #054EC0",
"g 	c #4AAAFF",
"h 	c #65C8FF",
"i 	c #1063E5",
"j 	c #D00808",
"k 	c #FF4B60",
"l 	c #FE6C8B",
"m 	c #FF1D1D",
"n 	c #820202",
"o 	c #1A3968",
"p 	c #186EF5",
"q 	c #6BCEFF",
"r 	c #0448B4",
"s 	c #9F0303",
"t 	c #FF292E",
"u 	c #FF3B49",
"v 	c #BB0505",
"w 	c #0346AE",
"x 	c #3D9BFF",
"y 	c #6CD0FF",
"z 	c #1A71FA",
"A 	c #012865",
"B 	c #ED1111",
"C 	c #FE607A",
"D 	c #FE5C76",
"E 	c #E70F0F",
"F 	c #1062E4",
"G 	c #63C6FF",
"H 	c #0650C4",
"I 	c #FF3F4D",
"J 	c #FE7091",
"K 	c #FF272C",
"L 	c #980202",
"M 	c #0342A5",
"N 	c #3491FF",
"O 	c #70D3FF",
"P 	c #257EFF",
"Q 	c #023484",
"R 	c #FE6E8C",
"S 	c #FF4759",
"T 	c #CB0707",
"U 	c #0F61E2",
"V 	c #60C3FF",
"W 	c #53B5FF",
"X 	c #0956CF",
"Y 	c #630101",
"Z 	c #0341A4",
"` 	c #3390FF",
" .	c #2680FF",
"..	c #02378C",
"+.	c #0F61E3",
"@.	c #60C2FF",
"#.	c #54B5FF",
"$.	c #0956D0",
"%.	c #D80B0C",
"&.	c #0344AB",
"*.	c #3794FF",
"=.	c #02388D",
"                                ",
"          . + @                 ",
"        # $ % & *               ",
"        = - ; > ,     ' )       ",
"      ! > ; ~ =       { ] ^ / ( ",
"      _ : % < [       } | 1 2   ",
"    3 + @ 4 5       6 7 8 9 0   ",
"  a b c d e         f g h i     ",
"  j k l m n       o p q ] r     ",
"s t @ u v         w x y z A     ",
"B C D E           F G 1 H       ",
"I J K L         M N O P Q       ",
"R S T           U V W X         ",
"% < Y         Z ` 8  ...        ",
"4 5           +.@.#.$.          ",
"%.          &.*.O  .=.          "};
