/* XPM */
static char * alphablend_xpm[] = {
"16 16 59 1",
" 	c None",
".	c #000000",
"+	c #666666",
"@	c #262626",
"#	c #7B7B7B",
"$	c #676767",
"%	c #8E8E8E",
"&	c #4B4B4B",
"*	c #B3B3B3",
"=	c #848484",
"-	c #9D9D9D",
";	c #464646",
">	c #3C3C3C",
",	c #808080",
"'	c #4C4C4C",
")	c #8D8D8D",
"!	c #969696",
"~	c #767676",
"{	c #6E6E6E",
"]	c #585858",
"^	c #898989",
"/	c #5E5E5E",
"(	c #C0C0C0",
"_	c #E1E1E1",
":	c #D0D0D0",
"<	c #6F6F6F",
"[	c #707070",
"}	c #191919",
"|	c #7A7A7A",
"1	c #4E4E4E",
"2	c #D8D8D8",
"3	c #E5E5E5",
"4	c #999999",
"5	c #BFBFBF",
"6	c #BBBBBB",
"7	c #2C2C2C",
"8	c #A7A7A7",
"9	c #CCCCCC",
"0	c #D9D9D9",
"a	c #8F8F8F",
"b	c #141414",
"c	c #333333",
"d	c #858585",
"e	c #3A3A3A",
"f	c #F8F8F8",
"g	c #F2F2F2",
"h	c #A9A9A9",
"i	c #B2B2B2",
"j	c #050505",
"k	c #868686",
"l	c #6D6D6D",
"m	c #505050",
"n	c #DEDEDE",
"o	c #B6B6B6",
"p	c #9B9B9B",
"q	c #616161",
"r	c #888888",
"s	c #AFAFAF",
"t	c #818181",
"          ..    ",
"   ....  ...    ",
"   ..........   ",
"   ..+@#.$..... ",
"   .%&*.=-;>... ",
"   .,%.')!~{].. ",
"   .^../(_:<[...",
"   }|..-1234=...",
"  .56.78:,90ab..",
" ..cd.1efghi=.. ",
"..jkl.mnopcq... ",
"....].rst%..... ",
"   ............ ",
"      ......... ",
"      ..        ",
"      ..        "};
