/* XPM */
const char * box_xpm[] = {
"25 25 175 2",
"  	c None",
". 	c #3333F4",
"+ 	c #2826F9",
"@ 	c #0A26FC",
"# 	c #044CF3",
"$ 	c #000000",
"% 	c #080848",
"& 	c #071CFD",
"* 	c #0A1CFD",
"= 	c #0A53F1",
"- 	c #004949",
"; 	c #181AA6",
"> 	c #020220",
", 	c #010B7F",
"' 	c #0A11FE",
") 	c #0F4AF4",
"! 	c #341FCF",
"~ 	c #3A1AA7",
"{ 	c #221033",
"] 	c #01011C",
"^ 	c #194FF1",
"/ 	c #7B5555",
"( 	c #5A1ABD",
"_ 	c #5217BF",
": 	c #9F2F4B",
"< 	c #120BCC",
"[ 	c #000224",
"} 	c #1F55EE",
"| 	c #933333",
"1 	c #5D27C5",
"2 	c #5F27C7",
"3 	c #9C277C",
"4 	c #0309FF",
"5 	c #571F1F",
"6 	c #0E0606",
"7 	c #02091B",
"8 	c #0D235F",
"9 	c #120808",
"0 	c #6C1D1D",
"a 	c #5F8080",
"b 	c #9C317B",
"c 	c #6327BA",
"d 	c #882678",
"e 	c #190AE5",
"f 	c #B23434",
"g 	c #DB3939",
"h 	c #B93434",
"i 	c #242249",
"j 	c #1C0808",
"k 	c #BA3131",
"l 	c #A13333",
"m 	c #199BF9",
"n 	c #5236B1",
"o 	c #6F3285",
"p 	c #3517DF",
"q 	c #5A18A6",
"r 	c #E63C3C",
"s 	c #FF5757",
"t 	c #EB3E3E",
"u 	c #374AB1",
"v 	c #08183A",
"w 	c #320C0C",
"x 	c #6E1C1C",
"y 	c #401717",
"z 	c #3662F0",
"A 	c #375AF2",
"B 	c #3215F9",
"C 	c #5318A6",
"D 	c #C04D4D",
"E 	c #F54545",
"F 	c #AF3747",
"G 	c #000A1A",
"H 	c #481A1A",
"I 	c #B83434",
"J 	c #792828",
"K 	c #3D35D8",
"L 	c #245CF9",
"M 	c #2907FB",
"N 	c #8F3333",
"O 	c #722020",
"P 	c #020F21",
"Q 	c #001C1C",
"R 	c #16148A",
"S 	c #9B2C79",
"T 	c #6719A3",
"U 	c #2D33E0",
"V 	c #033972",
"W 	c #351532",
"X 	c #05051B",
"Y 	c #391111",
"Z 	c #5A1483",
"` 	c #33189F",
" .	c #087AE0",
"..	c #362EF5",
"+.	c #531FB2",
"@.	c #561530",
"#.	c #0789D7",
"$.	c #428585",
"%.	c #2476F9",
"&.	c #572396",
"*.	c #661AA2",
"=.	c #240B75",
"-.	c #002424",
";.	c #00FFFF",
">.	c #0C9BCA",
",.	c #575466",
"'.	c #7C3333",
").	c #0F0707",
"!.	c #B13434",
"~.	c #CD3636",
"{.	c #A43333",
"].	c #3667DA",
"^.	c #3F1BF6",
"/.	c #3006FA",
"(.	c #0F0354",
"_.	c #0BC8DB",
":.	c #745A5F",
"<.	c #D83838",
"[.	c #DF3A3A",
"}.	c #832828",
"|.	c #EE4040",
"1.	c #FF5353",
"2.	c #DC3939",
"3.	c #742891",
"4.	c #3C11F7",
"5.	c #2E04FB",
"6.	c #10A8BE",
"7.	c #FB4B4B",
"8.	c #FF5252",
"9.	c #C93535",
"0.	c #002020",
"a.	c #963333",
"b.	c #E53B3B",
"c.	c #F94848",
"d.	c #D23737",
"e.	c #5E2296",
"f.	c #78247E",
"g.	c #5C17B9",
"h.	c #671B97",
"i.	c #1DA5C0",
"j.	c #E43B3B",
"k.	c #A73434",
"l.	c #140808",
"m.	c #8B2D2D",
"n.	c #AB3434",
"o.	c #8C3333",
"p.	c #3516DC",
"q.	c #BE314C",
"r.	c #3C10E9",
"s.	c #BA3167",
"t.	c #531919",
"u.	c #9C3333",
"v.	c #161A26",
"w.	c #6226AB",
"x.	c #952878",
"y.	c #341AE8",
"z.	c #BC3232",
"A.	c #0B0819",
"B.	c #1D1030",
"C.	c #5222A2",
"D.	c #6629A2",
"E.	c #762222",
"F.	c #022D2D",
"G.	c #8059C9",
"H.	c #1D2841",
"I.	c #081313",
"J.	c #04051F",
"K.	c #34245E",
"L.	c #072225",
"M.	c #001715",
"N.	c #5F6FCF",
"O.	c #594BB1",
"P.	c #19334A",
"Q.	c #3368E2",
"R.	c #84988E",
"                                                  ",
"                        . +     @         #       ",
"                      $ $ %   & *         =       ",
"                    $ - ; > $ , '       )         ",
"                $ $     ! ~ { ] $       ^         ",
"              $ $     / ( _ : < [ $ $   }         ",
"            $ $       | 1 2 3 4   5 6 7 8         ",
"        9 $ 0         a b c d e f g h i $ $       ",
"        $ j k l       m n o p q r s t u v $       ",
"        w x $ y       z A   B C D E F G $ $       ",
"      $ H I J $ $     K L   M   N O $ P   $       ",
"      $           $ Q R S T U   $ $ V     $       ",
"      $             W X Y Z ` $ $    .    $       ",
"      $             ..+.@.$ $ $     #.  $ $       ",
"      $       $.    %.&.*.=.-.;.  >.,.'.).        ",
"      $     !.~.{.].^.  /.(.    _.:.<.[.}.        ",
"      $   {.|.1.2.3.4.  5.$     6.!.7.8.9.        ",
"      0.  a.b.c.d.e.f.g.h.$   i.  a.j.t k.        ",
"      $ $ l.m.n.o.p.q.r.s.$         t.u.          ",
"          $ $ v.  w.x.y.z.$     $ $               ",
"              $ A.B.C.D.E.F.  $ $                 ",
"              G.H.I.J.K.L.$ M.$                   ",
"            N.    O.P.$ $ $ $                     ",
"            Q.  R.      $                         ",
"                                                  "};
