/* XPM */
static char * box_xpm[] = {
"16 16 85 1",
" 	c None",
".	c #000000",
"+	c #161682",
"@	c #0920FF",
"#	c #004B46",
"$	c #120D76",
"%	c #010106",
"&	c #060DC6",
"*	c #0F4AF3",
"=	c #805C55",
"-	c #4915CB",
";	c #7B2642",
">	c #000241",
",	c #1E56F7",
"'	c #0F0404",
")	c #8C4039",
"!	c #6027C9",
"~	c #95257F",
"{	c #6D2222",
"]	c #0E0C1B",
"^	c #08173E",
"/	c #010000",
"(	c #C53535",
"_	c #1E9EEB",
":	c #6C2C8F",
"<	c #3F18CF",
"[	c #AE2B5E",
"}	c #FE5251",
"|	c #5F499D",
"1	c #010B1B",
"2	c #802222",
"3	c #180909",
"4	c #090303",
"5	c #3C4FEA",
"6	c #2F0EFA",
"7	c #9A3D5B",
"8	c #C23435",
"9	c #100C17",
"0	c #000903",
"a	c #13158C",
"b	c #8C248C",
"c	c #2B32E5",
"d	c #020000",
"e	c #030810",
"f	c #2A1165",
"g	c #370D1F",
"h	c #180746",
"i	c #542698",
"j	c #471095",
"k	c #002E2B",
"l	c #198FB9",
"m	c #823A3C",
"n	c #080303",
"o	c #E03E3E",
"p	c #D43831",
"q	c #492ED2",
"r	c #160190",
"s	c #00BDD5",
"t	c #B83635",
"u	c #FF4B4B",
"v	c #B12F2F",
"w	c #001C1C",
"x	c #782929",
"y	c #E53C3C",
"z	c #D33931",
"A	c #602193",
"B	c #5816BD",
"C	c #390F3D",
"D	c #9D3434",
"E	c #DE3A3A",
"F	c #9D3333",
"G	c #1F0D0F",
"H	c #77269F",
"I	c #3116EE",
"J	c #631810",
"K	c #121227",
"L	c #1B0F3B",
"M	c #5C2990",
"N	c #27221D",
"O	c #626FCE",
"P	c #404188",
"Q	c #040409",
"R	c #000100",
"S	c #000201",
"T	c #84988D",
"                ",
"       .+ @     ",
"       #$%&  *  ",
"     . =-;>. ,  ",
"    '  )!~ {]^  ",
"   /(  _:<[}|1  ",
"   234 5 6789.  ",
"  .   0abcde    ",
"  .    fgh.  .  ",
"  .    ijk lmn  ",
"  . opq r stuv  ",
"  wxyzABC  DEF  ",
"   .G HIJ  .    ",
"     KLMN .     ",
"    O PQRS      ",
"     T          "};
