/* XPM */
static char * layout_xpm[] = {
"16 16 85 1",
" 	c None",
".	c #5F5F5F",
"+	c #626262",
"@	c #565656",
"#	c #000000",
"$	c #727272",
"%	c #A0A0A0",
"&	c #8A8A8A",
"*	c #969696",
"=	c #535353",
"-	c #323232",
";	c #555555",
">	c #343434",
",	c #ADADAD",
"'	c #AEAEAE",
")	c #A2A2A2",
"!	c #575757",
"~	c #4C4C4C",
"{	c #7C7C7C",
"]	c #777777",
"^	c #888888",
"/	c #5E5E5E",
"(	c #8F8F8F",
"_	c #D6D6D6",
":	c #DCDCDC",
"<	c #C9C9C9",
"[	c #959595",
"}	c #838383",
"|	c #B1B1B1",
"1	c #D2D2D2",
"2	c #B8B8B8",
"3	c #8B8B8B",
"4	c #5A5A5A",
"5	c #BBBBBB",
"6	c #CDCDCD",
"7	c #B0B0B0",
"8	c #D7D7D7",
"9	c #B5B5B5",
"0	c #A8A8A8",
"a	c #C6C6C6",
"b	c #B7B7B7",
"c	c #6C6C6C",
"d	c #999999",
"e	c #CACACA",
"f	c #939393",
"g	c #696969",
"h	c #8E8E8E",
"i	c #E7E7E7",
"j	c #979797",
"k	c #686868",
"l	c #A3A3A3",
"m	c #656565",
"n	c #525252",
"o	c #595959",
"p	c #636363",
"q	c #7B7B7B",
"r	c #5B5B5B",
"s	c #616161",
"t	c #7D7D7D",
"u	c #3D3D3D",
"v	c #676767",
"w	c #989898",
"x	c #B6B6B6",
"y	c #949494",
"z	c #6F6F6F",
"A	c #606060",
"B	c #919191",
"C	c #BABABA",
"D	c #9F9F9F",
"E	c #C0C0C0",
"F	c #A1A1A1",
"G	c #848484",
"H	c #474747",
"I	c #393939",
"J	c #747474",
"K	c #909090",
"L	c #C8C8C8",
"M	c #BDBDBD",
"N	c #6D6D6D",
"O	c #DDDDDD",
"P	c #B2B2B2",
"Q	c #050505",
"R	c #7A7A7A",
"S	c #A7A7A7",
"T	c #BFBFBF",
"  .+@   #       ",
" $%&*=  #  -;>  ",
" @,')!  # ~{]^/ ",
" (_:<[  # }|123 ",
"456789  # 0ab<9c",
" [9def  # ghijk ",
" +j3l   #       ",
"  mno   #       ",
"################",
"        #       ",
" ;p]qr  #  st=n ",
"uvw)xyz # ABCjg ",
"n^DExFGH#IJKLM{ ",
" N^(OPt QrRl)Sc ",
"   pTSR # . {{  ",
"        #       "};
