/* XPM */
static char * toggleRGB_xpm[] = {
"16 16 12 1",
" 	c None",
".	c #D2B48C",
"+	c #CD853F",
"@	c #8B4513",
"#	c #FFFF00",
"$	c #FF0000",
"%	c #00FF00",
"&	c #A020F0",
"*	c #000000",
"=	c #FFFFFF",
"-	c #0000FF",
";	c #63B8FF",
"                ",
"     ....++@    ",
"  ...#++$$$+@   ",
" ..+###+$$$++@  ",
"..+.###++$$+++@ ",
".%%++++++$++&+@ ",
".%%%++++*$+&&&+@",
"..%++++***+&&&+@",
".++++++**++++++@",
" .+++.=*+++---+@",
"  ++.=;++++---+@",
"   .+@++++++--+@",
"  .+@+++++***++@",
" .+@  ++++***++ ",
".+@     +++*++@ ",
"+@       ++++@  "};

